<?xml version="1.0" standalone="no"?>
<!DOCTYPE svg PUBLIC "-//W3C//DTD SVG 20010904//EN"
 "http://www.w3.org/TR/2001/REC-SVG-20010904/DTD/svg10.dtd">
<svg version="1.0" xmlns="http://www.w3.org/2000/svg"
 width="500.000000pt" height="500.000000pt" viewBox="0 0 500.000000 500.000000"
 preserveAspectRatio="xMidYMid meet">

<g transform="translate(0.000000,500.000000) scale(0.100000,-0.100000)"
fill="#000000" stroke="none">
<path d="M2235 4985 c-835 -92 -1563 -587 -1949 -1327 -328 -629 -375 -1357
-129 -2026 199 -543 583 -998 1093 -1294 779 -454 1754 -448 2525 15 421 253
734 585 950 1012 327 643 362 1389 98 2055 -229 577 -668 1051 -1228 1326
-419 205 -899 289 -1360 239z m635 -1083 c246 -49 430 -142 588 -298 l33 -33
-143 -195 c-132 -181 -145 -196 -173 -196 -23 0 -41 10 -66 36 -74 77 -219
156 -346 189 -160 42 -409 39 -529 -6 -164 -61 -237 -178 -212 -336 11 -72 45
-132 101 -176 80 -64 157 -89 484 -157 286 -59 387 -88 506 -140 224 -99 368
-248 438 -452 79 -233 59 -539 -51 -758 -32 -64 -121 -179 -172 -221 -196
-163 -448 -239 -793 -239 -444 0 -802 127 -1036 367 -47 48 -98 107 -113 130
l-28 42 159 193 c182 221 190 226 240 156 116 -160 305 -294 492 -349 142 -41
385 -49 492 -15 152 47 230 128 259 271 25 121 -9 244 -87 316 -84 77 -185
112 -573 200 -226 50 -336 86 -460 150 -214 110 -349 272 -407 489 -25 93 -25
350 0 440 38 141 122 279 225 371 110 98 303 188 477 223 121 23 133 24 370
21 174 -2 242 -7 325 -23z"/>
</g>
</svg>
